<svg width="30" height="30" viewBox="0 0 30 30" fill="none" xmlns="http://www.w3.org/2000/svg">
<path fill-rule="evenodd" clip-rule="evenodd" d="M19.375 5H22.5C23.1875 5 23.75 5.5625 23.75 6.25C23.75 6.9375 23.1875 7.5 22.5 7.5H7.5C6.8125 7.5 6.25 6.9375 6.25 6.25C6.25 5.5625 6.8125 5 7.5 5H10.625L11.5125 4.1125C11.7375 3.8875 12.0625 3.75 12.3875 3.75H17.6125C17.9375 3.75 18.2625 3.8875 18.4875 4.1125L19.375 5ZM10 26.25C8.625 26.25 7.5 25.125 7.5 23.75V11.25C7.5 9.875 8.625 8.75 10 8.75H20C21.375 8.75 22.5 9.875 22.5 11.25V23.75C22.5 25.125 21.375 26.25 20 26.25H10Z" fill="#7B7B7D"/>
</svg>
