<svg width="20" height="20" viewBox="0 0 20 20" fill="none" xmlns="http://www.w3.org/2000/svg">
<path d="M13.3334 5.41683H12.8334V5.91683H13.3334V5.41683ZM1.66675 16.2502L1.16675 16.2497V16.2502H1.66675ZM1.67508 7.0835L2.17508 7.08395V7.0835H1.67508ZM6.66675 5.41683V5.91683H7.16675V5.41683H6.66675ZM11.6667 5.41683V5.91683H12.1667V5.41683H11.6667ZM8.33341 5.41683H7.83341V5.91683H8.33341V5.41683ZM11.6667 3.75016H12.1667V3.25016H11.6667V3.75016ZM8.33341 3.75016V3.25016H7.83341V3.75016H8.33341ZM16.6667 4.91683H13.3334V5.91683H16.6667V4.91683ZM18.8334 7.0835C18.8334 5.88235 17.8679 4.91683 16.6667 4.91683V5.91683C17.3156 5.91683 17.8334 6.43464 17.8334 7.0835H18.8334ZM18.8334 16.2502V7.0835H17.8334V16.2502H18.8334ZM16.6667 18.4168C17.8679 18.4168 18.8334 17.4513 18.8334 16.2502H17.8334C17.8334 16.899 17.3156 17.4168 16.6667 17.4168V18.4168ZM3.33341 18.4168H16.6667V17.4168H3.33341V18.4168ZM1.16675 16.2502C1.16675 17.4513 2.13227 18.4168 3.33341 18.4168V17.4168C2.68456 17.4168 2.16675 16.899 2.16675 16.2502H1.16675ZM1.17508 7.08304L1.16675 16.2497L2.16675 16.2506L2.17508 7.08395L1.17508 7.08304ZM3.33341 4.91683C2.129 4.91683 1.17508 5.88563 1.17508 7.0835H2.17508C2.17508 6.43136 2.68782 5.91683 3.33341 5.91683V4.91683ZM6.66675 4.91683H3.33341V5.91683H6.66675V4.91683ZM6.16675 3.75016V5.41683H7.16675V3.75016H6.16675ZM8.33342 1.5835C7.13227 1.5835 6.16675 2.54902 6.16675 3.75016H7.16675C7.16675 3.10131 7.68456 2.5835 8.33342 2.5835V1.5835ZM11.6667 1.5835H8.33342V2.5835H11.6667V1.5835ZM13.8334 3.75016C13.8334 2.54902 12.8679 1.5835 11.6667 1.5835V2.5835C12.3156 2.5835 12.8334 3.10131 12.8334 3.75016H13.8334ZM13.8334 5.41683V3.75016H12.8334V5.41683H13.8334ZM11.6667 4.91683H8.33341V5.91683H11.6667V4.91683ZM11.1667 3.75016V5.41683H12.1667V3.75016H11.1667ZM8.33341 4.25016H11.6667V3.25016H8.33341V4.25016ZM8.83341 5.41683V3.75016H7.83341V5.41683H8.83341Z" fill="#939393"/>
</svg>
