<svg width="22" height="22" viewBox="0 0 22 22" fill="none" xmlns="http://www.w3.org/2000/svg">
<path d="M12.3748 12.375C11.6109 12.375 10.9616 12.1077 10.4269 11.5729C9.8922 11.0382 9.62484 10.3889 9.62484 9.62502C9.62484 8.86113 9.8922 8.21183 10.4269 7.6771C10.9616 7.14238 11.6109 6.87502 12.3748 6.87502C13.1387 6.87502 13.788 7.14238 14.3228 7.6771C14.8575 8.21183 15.1248 8.86113 15.1248 9.62502C15.1248 10.3889 14.8575 11.0382 14.3228 11.5729C13.788 12.1077 13.1387 12.375 12.3748 12.375ZM5.0415 15.5834C4.65956 15.5834 4.33491 15.4497 4.06755 15.1823C3.80018 14.915 3.6665 14.5903 3.6665 14.2084V5.04169C3.6665 4.65974 3.80018 4.33509 4.06755 4.06773C4.33491 3.80037 4.65956 3.66669 5.0415 3.66669H19.7082C20.0901 3.66669 20.4148 3.80037 20.6821 4.06773C20.9495 4.33509 21.0832 4.65974 21.0832 5.04169V14.2084C21.0832 14.5903 20.9495 14.915 20.6821 15.1823C20.4148 15.4497 20.0901 15.5834 19.7082 15.5834H5.0415ZM7.33317 14.2084H17.4165C17.4165 13.5667 17.638 13.0243 18.0811 12.5813C18.5241 12.1382 19.0665 11.9167 19.7082 11.9167V7.33335C19.0665 7.33335 18.5241 7.11183 18.0811 6.66877C17.638 6.22571 17.4165 5.68335 17.4165 5.04169H7.33317C7.33317 5.68335 7.11164 6.22571 6.66859 6.66877C6.22553 7.11183 5.68317 7.33335 5.0415 7.33335V11.9167C5.68317 11.9167 6.22553 12.1382 6.66859 12.5813C7.11164 13.0243 7.33317 13.5667 7.33317 14.2084ZM18.3332 18.3334H2.2915C1.90956 18.3334 1.58491 18.1997 1.31755 17.9323C1.05018 17.665 0.916504 17.3403 0.916504 16.9584V6.41669H2.2915V16.9584H18.3332V18.3334ZM5.0415 14.2084V5.04169V14.2084Z" fill="#939393"/>
</svg>
