<svg width="788" height="1402" viewBox="0 0 788 1402" fill="none" xmlns="http://www.w3.org/2000/svg">
<mask id="path-1-inside-1_2401_5670" fill="white">
<path fill-rule="evenodd" clip-rule="evenodd" d="M0.00532817 51.1886C0.00179052 51.1197 0 51.0502 0 50.9804V4C0 1.79086 1.79086 0 4 0H166C168.209 0 170 1.79086 170 4V47.3969H784C786.209 47.3969 788 49.1878 788 51.3969V1398C788 1400.21 786.209 1402 784 1402H4.00002C1.79088 1402 0 1400.21 0 1398V51.3969C0 51.3271 0.00179052 51.2576 0.00532817 51.1886Z"/>
</mask>
<path fill-rule="evenodd" clip-rule="evenodd" d="M0.00532817 51.1886C0.00179052 51.1197 0 51.0502 0 50.9804V4C0 1.79086 1.79086 0 4 0H166C168.209 0 170 1.79086 170 4V47.3969H784C786.209 47.3969 788 49.1878 788 51.3969V1398C788 1400.21 786.209 1402 784 1402H4.00002C1.79088 1402 0 1400.21 0 1398V51.3969C0 51.3271 0.00179052 51.2576 0.00532817 51.1886Z" fill="white"/>
<path d="M0.00532817 51.1886L1.00402 51.2399L1.00664 51.1886L1.00402 51.1374L0.00532817 51.1886ZM170 47.3969H169V48.3969H170V47.3969ZM-1 50.9804C-1 51.0673 -0.997771 51.1538 -0.993359 51.2399L1.00402 51.1374C1.00135 51.0855 1 51.0331 1 50.9804H-1ZM-1 4V50.9804H1V4H-1ZM4 -1C1.23858 -1 -1 1.23858 -1 4H1C1 2.34315 2.34315 1 4 1V-1ZM166 -1H4V1H166V-1ZM171 4C171 1.23858 168.761 -1 166 -1V1C167.657 1 169 2.34315 169 4H171ZM171 47.3969V4H169V47.3969H171ZM170 48.3969H784V46.3969H170V48.3969ZM784 48.3969C785.657 48.3969 787 49.7401 787 51.3969H789C789 48.6355 786.761 46.3969 784 46.3969V48.3969ZM787 51.3969V1398H789V51.3969H787ZM787 1398C787 1399.66 785.657 1401 784 1401V1403C786.761 1403 789 1400.76 789 1398H787ZM784 1401H4.00002V1403H784V1401ZM4.00002 1401C2.34317 1401 1 1399.66 1 1398H-1C-1 1400.76 1.2386 1403 4.00002 1403V1401ZM1 1398V51.3969H-1V1398H1ZM1 51.3969C1 51.3441 1.00135 51.2918 1.00402 51.2399L-0.993359 51.1374C-0.997771 51.2234 -1 51.31 -1 51.3969H1Z" fill="#DDDDE1" mask="url(#path-1-inside-1_2401_5670)"/>
</svg>
