<svg width="24" height="25" viewBox="0 0 24 25" fill="none" xmlns="http://www.w3.org/2000/svg">
<path d="M12 20.202C10.8954 20.202 10 19.2975 10 18.1818C10 17.0661 10.8954 16.1616 12 16.1616C13.1046 16.1616 14 17.0661 14 18.1818C14 19.2975 13.1046 20.202 12 20.202ZM12 14.1414C10.8954 14.1414 10 13.2369 10 12.1212C10 11.0055 10.8954 10.101 12 10.101C13.1046 10.101 14 11.0055 14 12.1212C14 12.657 13.7893 13.1709 13.4142 13.5497C13.0391 13.9286 12.5304 14.1414 12 14.1414ZM12 8.08081C10.8954 8.08081 10 7.17633 10 6.06061C10 4.94488 10.8954 4.04041 12 4.04041C13.1046 4.04041 14 4.94488 14 6.06061C14 6.5964 13.7893 7.11024 13.4142 7.48911C13.0391 7.86797 12.5304 8.08081 12 8.08081Z" fill="#2E3A59"/>
</svg>
