<svg width="44" height="44" viewBox="0 0 44 44" fill="none" xmlns="http://www.w3.org/2000/svg">
<g clip-path="url(#clip0_2401_4922)">
<path d="M28.3 15.7102C27.91 15.3202 27.28 15.3202 26.89 15.7102L22 20.5902L17.11 15.7002C16.72 15.3102 16.09 15.3102 15.7 15.7002C15.31 16.0902 15.31 16.7202 15.7 17.1102L20.59 22.0002L15.7 26.8902C15.31 27.2802 15.31 27.9102 15.7 28.3002C16.09 28.6902 16.72 28.6902 17.11 28.3002L22 23.4102L26.89 28.3002C27.28 28.6902 27.91 28.6902 28.3 28.3002C28.69 27.9102 28.69 27.2802 28.3 26.8902L23.41 22.0002L28.3 17.1102C28.68 16.7302 28.68 16.0902 28.3 15.7102Z" fill="#C4C5C8"/>
</g>
<defs>
<clipPath id="clip0_2401_4922">
<rect width="24" height="24" fill="white" transform="translate(10 10)"/>
</clipPath>
</defs>
</svg>
