<svg width="20" height="20" viewBox="0 0 20 20" fill="none" xmlns="http://www.w3.org/2000/svg">
<path d="M10.0001 17.5002C8.94753 16.6024 7.9719 15.6181 7.08342 14.5577C5.75008 12.9652 4.16675 10.5935 4.16675 8.3335C4.16557 5.97312 5.58695 3.84466 7.76764 2.94133C9.94832 2.038 12.4585 2.53786 14.1267 4.20766C15.2238 5.29984 15.8383 6.78549 15.8334 8.3335C15.8334 10.5935 14.2501 12.9652 12.9167 14.5577C12.0283 15.6181 11.0526 16.6024 10.0001 17.5002ZM10.0001 5.8335C9.10692 5.8335 8.2816 6.30999 7.83502 7.0835C7.38844 7.857 7.38844 8.81 7.83502 9.5835C8.2816 10.357 9.10692 10.8335 10.0001 10.8335C11.3808 10.8335 12.5001 9.71421 12.5001 8.3335C12.5001 6.95279 11.3808 5.8335 10.0001 5.8335Z" fill="#626264"/>
</svg>
