<svg width="32" height="32" viewBox="0 0 32 32" fill="none" xmlns="http://www.w3.org/2000/svg">
<path fill-rule="evenodd" clip-rule="evenodd" d="M6.81058 6.48925C7.76658 6.35992 8.93725 6.33725 10.3453 6.33458C10.4289 5.24587 10.9205 4.22887 11.7217 3.48699C12.5229 2.74512 13.5747 2.33307 14.6666 2.33325H17.3333C18.4247 2.33338 19.476 2.74539 20.2769 3.48696C21.0777 4.22852 21.5693 5.245 21.6532 6.33325C23.0626 6.33725 24.2333 6.35992 25.1893 6.48925C26.3892 6.64925 27.3999 6.99592 28.2026 7.79725C29.0053 8.59992 29.3493 9.61058 29.5119 10.8106C29.6666 11.9666 29.6666 13.4373 29.6666 15.2599V20.7399C29.6666 22.5626 29.6666 24.0333 29.5119 25.1893C29.3493 26.3892 29.0053 27.3999 28.2026 28.2026C27.3999 29.0053 26.3892 29.3493 25.1893 29.5119C24.0333 29.6666 22.5626 29.6666 20.7399 29.6666H11.2599C9.43725 29.6666 7.96658 29.6666 6.81058 29.5119C5.61058 29.3493 4.59992 29.0053 3.79725 28.2026C2.99459 27.3999 2.65059 26.3892 2.48925 25.1893C2.33325 24.0333 2.33325 22.5626 2.33325 20.7399V15.2599C2.33325 13.4373 2.33325 11.9666 2.48925 10.8106C2.64925 9.61058 2.99592 8.59992 3.79725 7.79725C4.59992 6.99459 5.61058 6.65059 6.81058 6.48925ZM19.6426 6.33325H12.3573C12.4374 5.77793 12.715 5.27009 13.1391 4.90277C13.5632 4.53546 14.1055 4.33327 14.6666 4.33325H17.3333C17.8943 4.33327 18.4366 4.53546 18.8607 4.90277C19.2849 5.27009 19.5624 5.77793 19.6426 6.33325ZM7.07725 27.5292C6.09859 27.3972 5.58125 27.1559 5.21192 26.7879C4.84259 26.4186 4.60259 25.9013 4.47059 24.9213C4.33592 23.9146 4.33325 22.5799 4.33325 20.6666V16.1733C9.25058 18.2373 12.1226 19.3653 15.1466 19.5066C15.7146 19.5333 16.2853 19.5333 16.8533 19.5066C19.8773 19.3653 22.7493 18.2373 27.6666 16.1733V20.6666C27.6666 22.5799 27.6639 23.9146 27.5292 24.9226C27.3972 25.9012 27.1559 26.4186 26.7879 26.7879C26.4186 27.1572 25.9013 27.3972 24.9213 27.5292C23.9146 27.6639 22.5799 27.6666 20.6666 27.6666H11.3333C9.41992 27.6666 8.08392 27.6639 7.07725 27.5292ZM27.6639 14.0039C22.1639 16.3173 19.5186 17.3799 16.7599 17.5079C16.2533 17.5319 15.7466 17.5319 15.2399 17.5079C12.4799 17.3799 9.83592 16.3173 4.33592 14.0039C4.34259 12.7733 4.36925 11.8333 4.47059 11.0773C4.60259 10.0986 4.84392 9.58125 5.21192 9.21192C5.58125 8.84258 6.09859 8.60259 7.07859 8.47059C8.08392 8.33592 9.41992 8.33325 11.3333 8.33325H20.6666C22.5799 8.33325 23.9146 8.33592 24.9226 8.47059C25.9012 8.60259 26.4186 8.84392 26.7879 9.21192C27.1572 9.58125 27.3972 10.0986 27.5292 11.0786C27.6306 11.8333 27.6572 12.7719 27.6639 14.0039Z" fill="white"/>
</svg>
