<svg width="24" height="25" viewBox="0 0 24 25" fill="none" xmlns="http://www.w3.org/2000/svg">
<path d="M17.4998 22.2222C16.4178 22.2348 15.3922 21.7354 14.7281 20.8724C14.064 20.0094 13.8378 18.8823 14.1168 17.8262L7.85685 14.2121C6.77513 15.2131 5.18953 15.425 3.88733 14.7425C2.58514 14.06 1.84372 12.6285 2.03121 11.1588C2.21871 9.68904 3.29518 8.49415 4.72612 8.16739C6.15707 7.84063 7.6377 8.4516 8.43285 9.69694L14.1158 6.41512C14.0423 6.1345 14.0034 5.84579 13.9998 5.55553C13.9855 3.86534 15.1476 2.39709 16.7831 2.03919C18.4185 1.68129 20.078 2.53204 20.7575 4.07665C21.437 5.62127 20.9498 7.43555 19.5908 8.4217C18.2318 9.40784 16.3741 9.29501 15.1418 8.15149L8.99085 11.702C8.98476 11.9639 8.94851 12.2243 8.88285 12.4777L15.1418 16.0909C16.2941 15.0227 18.0086 14.8579 19.3397 15.6872C20.6708 16.5165 21.2945 18.1381 20.8667 19.6576C20.4389 21.1771 19.0638 22.2245 17.4998 22.2222ZM17.4998 17.1717C16.6714 17.1717 15.9998 17.85 15.9998 18.6868C15.9998 19.5236 16.6714 20.202 17.4998 20.202C18.3283 20.202 18.9998 19.5236 18.9998 18.6868C18.9998 17.85 18.3283 17.1717 17.4998 17.1717ZM5.49985 10.101C4.67142 10.101 3.99985 10.7793 3.99985 11.6161C3.99985 12.4529 4.67142 13.1313 5.49985 13.1313C6.32827 13.1313 6.99985 12.4529 6.99985 11.6161C6.99985 10.7793 6.32827 10.101 5.49985 10.101ZM17.4998 4.04038C16.6714 4.04038 15.9998 4.71873 15.9998 5.55553C15.9998 6.39232 16.6714 7.07068 17.4998 7.07068C18.3283 7.07068 18.9998 6.39232 18.9998 5.55553C18.9998 4.71873 18.3283 4.04038 17.4998 4.04038Z" fill="#2E3A59"/>
</svg>
