<svg width="24" height="24" viewBox="0 0 24 24" fill="none" xmlns="http://www.w3.org/2000/svg">
<path d="M15.8784 7.41697C14.724 6.33337 13.2135 5.79121 11.6285 5.89273C8.79963 6.07441 6.52731 8.34337 6.34275 11.1711C6.24627 12.6747 6.73227 14.1269 7.71363 15.2631C7.85883 15.4289 8.15187 15.894 8.48067 17.142C8.56539 17.466 8.70435 17.7646 8.89011 18.0351V19.6015C8.89011 20.5543 9.48555 21.3691 10.3231 21.6979C10.4004 22.3157 11.1211 22.8 12 22.8C12.8595 22.8 13.567 22.3368 13.6702 21.7387C14.5659 21.4407 15.2143 20.5963 15.2143 19.6018V17.8255C15.3389 17.6059 15.4385 17.3715 15.5047 17.1197C15.8153 15.9209 16.1026 15.4699 16.2456 15.3079C17.1636 14.2723 17.6691 12.9384 17.6691 11.5519C17.6693 9.99241 17.0165 8.48497 15.8784 7.41697ZM14.2543 19.6018C14.2543 20.3148 13.6743 20.8949 12.9612 20.8949H11.1432C10.4302 20.8949 9.85011 20.3148 9.85011 19.6018V18.4126H14.2543V19.6018ZM15.5271 14.6717C15.1659 15.0797 14.8546 15.8016 14.5759 16.8768C14.521 17.0849 14.436 17.2776 14.3225 17.4523H12.2391V14.0386C13.2562 13.8667 14.0343 12.9821 14.0343 11.9167C14.0343 10.729 13.068 9.76249 11.88 9.76249C10.692 9.76249 9.72579 10.7287 9.72579 11.9167C9.72579 12.9814 10.5027 13.8655 11.5188 14.0381V17.4523H9.65283C9.54339 17.2836 9.46155 17.0983 9.40899 16.8979C9.11595 15.7855 8.79771 15.0439 8.43795 14.6328C7.62411 13.6908 7.22019 12.4831 7.30059 11.2327C7.45371 8.88553 9.34059 7.00129 11.6895 6.85057C13.0066 6.76753 14.2623 7.21633 15.2213 8.11657C16.1806 9.01681 16.7091 10.2367 16.7091 11.5515C16.7093 12.7037 16.2895 13.8115 15.5271 14.6717ZM11.88 13.351C11.0892 13.351 10.4458 12.7075 10.4458 11.9167C10.4458 11.1259 11.0892 10.4825 11.88 10.4825C12.6708 10.4825 13.3143 11.1259 13.3143 11.9167C13.3143 12.7075 12.6708 13.351 11.88 13.351ZM4.20243 11.0259H2.17419C1.93563 11.0259 1.74219 11.2193 1.74219 11.4579C1.74219 11.6964 1.93563 11.8899 2.17419 11.8899H4.20243C4.44099 11.8899 4.63443 11.6964 4.63443 11.4579C4.63443 11.2193 4.44099 11.0259 4.20243 11.0259ZM21.8259 11.0259H19.7976C19.5591 11.0259 19.3656 11.2193 19.3656 11.4579C19.3656 11.6964 19.5591 11.8899 19.7976 11.8899H21.8259C22.0644 11.8899 22.2579 11.6964 22.2579 11.4579C22.2579 11.2193 22.0647 11.0259 21.8259 11.0259ZM6.18075 16.6663L4.74651 18.1006C4.57779 18.2691 4.57779 18.5427 4.74651 18.7114C4.83099 18.7959 4.94139 18.8379 5.05203 18.8379C5.16243 18.8379 5.27307 18.7956 5.35755 18.7114L6.79179 17.2771C6.96051 17.1087 6.96051 16.8351 6.79179 16.6663C6.62331 16.4979 6.34971 16.4976 6.18075 16.6663ZM17.5138 6.37609C17.6242 6.37609 17.7348 6.33385 17.8193 6.24961L19.2535 4.81537C19.4223 4.64689 19.4223 4.37329 19.2535 4.20457C19.0851 4.03609 18.8115 4.03585 18.6425 4.20457L17.2083 5.63881C17.0395 5.80729 17.0395 6.08089 17.2083 6.24961C17.2927 6.33409 17.4031 6.37609 17.5138 6.37609ZM11.568 1.63201V3.66025C11.568 3.89881 11.7615 4.09225 12 4.09225C12.2386 4.09225 12.432 3.89881 12.432 3.66025V1.63201C12.432 1.39345 12.2386 1.20001 12 1.20001C11.7615 1.20001 11.568 1.39345 11.568 1.63201ZM17.8193 16.6663C17.6506 16.4976 17.377 16.4976 17.2083 16.6663C17.0395 16.8351 17.0395 17.1087 17.2083 17.2771L18.6425 18.7114C18.727 18.7959 18.8376 18.8379 18.948 18.8379C19.0584 18.8379 19.1691 18.7956 19.2535 18.7114C19.4223 18.5427 19.4223 18.2691 19.2535 18.1006L17.8193 16.6663ZM6.18075 6.24961C6.26523 6.33409 6.37587 6.37609 6.48627 6.37609C6.59667 6.37609 6.70731 6.33385 6.79179 6.24961C6.96051 6.08089 6.96051 5.80729 6.79179 5.63881L5.35755 4.20457C5.18883 4.03585 4.91523 4.03585 4.74651 4.20457C4.57779 4.37329 4.57779 4.64689 4.74651 4.81537L6.18075 6.24961Z" fill="#939393"/>
</svg>
