<svg width="21" height="21" viewBox="0 0 21 21" fill="none" xmlns="http://www.w3.org/2000/svg">
<g clip-path="url(#clip0_2478_10374)">
<path d="M8.75008 21C8.57508 21 8.40008 20.9125 8.31258 20.9125C8.05008 20.7375 7.87508 20.3875 7.87508 20.125V12.5125L0.175077 1.4C7.73668e-05 1.1375 -0.0874226 0.7875 0.0875774 0.4375C0.262577 0.175 0.525077 0 0.875077 0H20.1251C20.4751 0 20.7376 0.175 20.9126 0.4375C21.0876 0.7 21.0001 1.05 20.8251 1.3125L13.1251 12.5125V18.375C13.1251 18.725 12.9501 18.9875 12.6001 19.1625L9.10008 20.9125C9.01258 21 8.92508 21 8.75008 21ZM2.53758 1.75L9.45008 11.725C9.53758 11.9 9.62508 12.075 9.62508 12.25V18.725L11.3751 17.85V12.25C11.3751 12.075 11.4626 11.9 11.5501 11.725L18.4626 1.75H2.53758Z" fill="#313132"/>
</g>
<defs>
<clipPath id="clip0_2478_10374">
<rect width="21" height="21" fill="white"/>
</clipPath>
</defs>
</svg>
