<svg width="32" height="32" viewBox="0 0 32 32" fill="none" xmlns="http://www.w3.org/2000/svg">
<g clip-path="url(#clip0_1893_9434)">
<path d="M8.31989 24.68C8.31989 24.1277 7.87218 23.68 7.31989 23.68H6.11989C5.56761 23.68 5.11989 23.2323 5.11989 22.68V17.64C5.11989 17.0877 5.56761 16.64 6.11989 16.64H14.3599C14.9122 16.64 15.3599 17.0877 15.3599 17.64V22.68C15.3599 23.2323 14.9122 23.68 14.3599 23.68H13.1599C12.6076 23.68 12.1599 24.1277 12.1599 24.68V30.36C12.1599 30.9123 12.6076 31.36 13.1599 31.36H18.8399C19.3922 31.36 19.8399 30.9123 19.8399 30.36V24.68C19.8399 24.1277 19.3922 23.68 18.8399 23.68H17.6399C17.0876 23.68 16.6399 23.2323 16.6399 22.68V17.64C16.6399 17.0877 17.0876 16.64 17.6399 16.64H25.8799C26.4322 16.64 26.8799 17.0877 26.8799 17.64V22.68C26.8799 23.2323 26.4322 23.68 25.8799 23.68H24.6799C24.1276 23.68 23.6799 24.1277 23.6799 24.68V30.36C23.6799 30.9123 24.1276 31.36 24.6799 31.36H30.3599C30.9122 31.36 31.3599 30.9123 31.3599 30.36V24.68C31.3599 24.1277 30.9122 23.68 30.3599 23.68H29.1599C28.6076 23.68 28.1599 23.2323 28.1599 22.68V16.36C28.1599 15.8077 27.7122 15.36 27.1599 15.36H17.6399C17.0876 15.36 16.6399 14.9123 16.6399 14.36V9.32002C16.6399 8.76773 17.0876 8.32001 17.6399 8.32001H20.1199C20.6722 8.32001 21.1199 7.8723 21.1199 7.32001V1.64002C21.1199 1.08773 20.6722 0.640015 20.1199 0.640015H11.8799C11.3276 0.640015 10.8799 1.08773 10.8799 1.64001V7.32001C10.8799 7.8723 11.3276 8.32001 11.8799 8.32001H14.3599C14.9122 8.32001 15.3599 8.76773 15.3599 9.32001V14.36C15.3599 14.9123 14.9122 15.36 14.3599 15.36H4.83989C4.28761 15.36 3.83989 15.8077 3.83989 16.36V22.68C3.83989 23.2323 3.39218 23.68 2.83989 23.68H1.63989C1.08761 23.68 0.639893 24.1277 0.639893 24.68V30.36C0.639893 30.9123 1.08761 31.36 1.63989 31.36H7.31989C7.87218 31.36 8.31989 30.9123 8.31989 30.36V24.68ZM18.5599 29.08C18.5599 29.6323 18.1122 30.08 17.5599 30.08H14.4399C13.8876 30.08 13.4399 29.6323 13.4399 29.08V25.96C13.4399 25.4077 13.8876 24.96 14.4399 24.96H17.5599C18.1122 24.96 18.5599 25.4077 18.5599 25.96V29.08ZM30.0799 29.08C30.0799 29.6323 29.6322 30.08 29.0799 30.08H25.9599C25.4076 30.08 24.9599 29.6323 24.9599 29.08V25.96C24.9599 25.4077 25.4076 24.96 25.9599 24.96H29.0799C29.6322 24.96 30.0799 25.4077 30.0799 25.96V29.08ZM12.1599 2.92002C12.1599 2.36773 12.6076 1.92001 13.1599 1.92001H18.8399C19.3922 1.92001 19.8399 2.36773 19.8399 2.92001V6.04001C19.8399 6.5923 19.3922 7.04001 18.8399 7.04001H13.1599C12.6076 7.04001 12.1599 6.5923 12.1599 6.04001V2.92002ZM7.03989 29.08C7.03989 29.6323 6.59218 30.08 6.03989 30.08H2.91989C2.36761 30.08 1.91989 29.6323 1.91989 29.08V25.96C1.91989 25.4077 2.36761 24.96 2.91989 24.96H6.03989C6.59218 24.96 7.03989 25.4077 7.03989 25.96V29.08Z" fill="#A9A9A9" stroke="#A9A9A9"/>
</g>
<defs>
<clipPath id="clip0_1893_9434">
<rect width="32" height="32" fill="white"/>
</clipPath>
</defs>
</svg>
