<svg width="19" height="19" viewBox="0 0 19 19" fill="none" xmlns="http://www.w3.org/2000/svg">
<path d="M16.0343 17.4382C16.0343 18.3021 13.1071 18.9998 9.50004 18.9998C5.89301 18.9998 2.96582 18.3021 2.96582 17.4382C2.96582 16.6663 5.31113 16.031 8.38676 15.9004H10.6133C13.6919 16.031 16.0343 16.6663 16.0343 17.4382Z" fill="#E3E2E1"/>
<path d="M9.50009 0C6.1454 0 3.42603 2.71641 3.42603 6.07109C3.42603 9.42578 9.50009 17.4384 9.50009 17.4384C9.50009 17.4384 15.5712 9.42578 15.5712 6.07109C15.5712 2.71641 12.8548 0 9.50009 0ZM9.50009 10.0908C7.27946 10.0908 5.4804 8.29172 5.4804 6.07109C5.4804 3.85047 7.27946 2.05141 9.50009 2.05141C11.7207 2.05141 13.5198 3.85047 13.5198 6.07109C13.5198 8.29172 11.7207 10.0908 9.50009 10.0908Z" fill="#E82327"/>
</svg>
