<svg width="32" height="32" viewBox="0 0 32 32" fill="none" xmlns="http://www.w3.org/2000/svg">
<g clip-path="url(#clip0_2401_4777)">
<path d="M8.31989 24.6799C8.31989 24.1276 7.87218 23.6799 7.31989 23.6799H6.11989C5.56761 23.6799 5.11989 23.2322 5.11989 22.6799V17.6399C5.11989 17.0876 5.56761 16.6399 6.11989 16.6399H14.3599C14.9122 16.6399 15.3599 17.0876 15.3599 17.6399V22.6799C15.3599 23.2322 14.9122 23.6799 14.3599 23.6799H13.1599C12.6076 23.6799 12.1599 24.1276 12.1599 24.6799V30.3599C12.1599 30.9122 12.6076 31.3599 13.1599 31.3599H18.8399C19.3922 31.3599 19.8399 30.9122 19.8399 30.3599V24.6799C19.8399 24.1276 19.3922 23.6799 18.8399 23.6799H17.6399C17.0876 23.6799 16.6399 23.2322 16.6399 22.6799V17.6399C16.6399 17.0876 17.0876 16.6399 17.6399 16.6399H25.8799C26.4322 16.6399 26.8799 17.0876 26.8799 17.6399V22.6799C26.8799 23.2322 26.4322 23.6799 25.8799 23.6799H24.6799C24.1276 23.6799 23.6799 24.1276 23.6799 24.6799V30.3599C23.6799 30.9122 24.1276 31.3599 24.6799 31.3599H30.3599C30.9122 31.3599 31.3599 30.9122 31.3599 30.3599V24.6799C31.3599 24.1276 30.9122 23.6799 30.3599 23.6799H29.1599C28.6076 23.6799 28.1599 23.2322 28.1599 22.6799V16.3599C28.1599 15.8076 27.7122 15.3599 27.1599 15.3599H17.6399C17.0876 15.3599 16.6399 14.9122 16.6399 14.3599V9.31989C16.6399 8.76761 17.0876 8.31989 17.6399 8.31989H20.1199C20.6722 8.31989 21.1199 7.87218 21.1199 7.31989V1.63989C21.1199 1.08761 20.6722 0.639893 20.1199 0.639893H11.8799C11.3276 0.639893 10.8799 1.08761 10.8799 1.63989V7.31989C10.8799 7.87218 11.3276 8.31989 11.8799 8.31989H14.3599C14.9122 8.31989 15.3599 8.76761 15.3599 9.31989V14.3599C15.3599 14.9122 14.9122 15.3599 14.3599 15.3599H4.83989C4.28761 15.3599 3.83989 15.8076 3.83989 16.3599V22.6799C3.83989 23.2322 3.39218 23.6799 2.83989 23.6799H1.63989C1.08761 23.6799 0.639893 24.1276 0.639893 24.6799V30.3599C0.639893 30.9122 1.08761 31.3599 1.63989 31.3599H7.31989C7.87218 31.3599 8.31989 30.9122 8.31989 30.3599V24.6799ZM18.5599 29.0799C18.5599 29.6322 18.1122 30.0799 17.5599 30.0799H14.4399C13.8876 30.0799 13.4399 29.6322 13.4399 29.0799V25.9599C13.4399 25.4076 13.8876 24.9599 14.4399 24.9599H17.5599C18.1122 24.9599 18.5599 25.4076 18.5599 25.9599V29.0799ZM30.0799 29.0799C30.0799 29.6322 29.6322 30.0799 29.0799 30.0799H25.9599C25.4076 30.0799 24.9599 29.6322 24.9599 29.0799V25.9599C24.9599 25.4076 25.4076 24.9599 25.9599 24.9599H29.0799C29.6322 24.9599 30.0799 25.4076 30.0799 25.9599V29.0799ZM12.1599 2.91989C12.1599 2.36761 12.6076 1.91989 13.1599 1.91989H18.8399C19.3922 1.91989 19.8399 2.36761 19.8399 2.91989V6.03989C19.8399 6.59218 19.3922 7.03989 18.8399 7.03989H13.1599C12.6076 7.03989 12.1599 6.59218 12.1599 6.03989V2.91989ZM7.03989 29.0799C7.03989 29.6322 6.59218 30.0799 6.03989 30.0799H2.91989C2.36761 30.0799 1.91989 29.6322 1.91989 29.0799V25.9599C1.91989 25.4076 2.36761 24.9599 2.91989 24.9599H6.03989C6.59218 24.9599 7.03989 25.4076 7.03989 25.9599V29.0799Z" fill="white" stroke="white"/>
</g>
<defs>
<clipPath id="clip0_2401_4777">
<rect width="32" height="32" fill="white"/>
</clipPath>
</defs>
</svg>
