<svg width="24" height="24" viewBox="0 0 24 24" fill="none" xmlns="http://www.w3.org/2000/svg">
<g clip-path="url(#clip0_2401_4913)">
<path d="M14.2318 12.528C15.7918 11.568 16.7998 9.67202 16.7998 7.92004C16.7998 5.42406 14.7598 2.64009 11.9998 2.64009C9.23985 2.64009 7.19987 5.42406 7.19987 7.92004C7.19987 9.67202 8.20786 11.568 9.76784 12.528C6.07188 13.512 3.35991 16.896 3.35991 20.8799C3.35991 21.1439 3.57591 21.3599 3.8399 21.3599H20.1597C20.4237 21.3599 20.6397 21.1439 20.6397 20.8799C20.6397 16.896 17.9278 13.512 14.2318 12.528ZM8.15986 7.92004C8.15986 5.44806 10.1998 3.60008 11.9998 3.60008C13.7998 3.60008 15.8398 5.44806 15.8398 7.92004C15.8398 10.392 13.7998 12.24 11.9998 12.24C10.1998 12.24 8.15986 10.392 8.15986 7.92004ZM4.3439 20.3999C4.5839 16.392 7.94386 13.2 11.9998 13.2C16.0558 13.2 19.4157 16.392 19.6557 20.3999H4.3439Z" fill="white" stroke="white"/>
<path d="M293.757 -189.598V214.558H-134.399V-189.598H293.757ZM295.677 -191.518H-136.319V216.478H295.677V-191.518Z" fill="#0000FF"/>
</g>
<defs>
<clipPath id="clip0_2401_4913">
<rect width="23.0769" height="23.0769" fill="white" transform="scale(1.03999)"/>
</clipPath>
</defs>
</svg>
